<?xml version="1.0" standalone="no"?>
<!DOCTYPE svg PUBLIC "-//W3C//DTD SVG 20010904//EN"
 "http://www.w3.org/TR/2001/REC-SVG-20010904/DTD/svg10.dtd">
<svg version="1.0" xmlns="http://www.w3.org/2000/svg"
 width="300.000000pt" height="300.000000pt" viewBox="0 0 300.000000 300.000000"
 preserveAspectRatio="xMidYMid meet">
<metadata>
Created by potrace 1.10, written by Peter Selinger 2001-2011
</metadata>
<g transform="translate(0.000000,300.000000) scale(0.100000,-0.100000)"
fill="#000000" stroke="none">
<path d="M1421 2099 c-46 -18 -82 -51 -110 -101 -27 -47 -32 -51 -72 -54 -61
-6 -112 -43 -135 -98 -13 -31 -28 -49 -47 -57 -59 -25 -91 -111 -67 -183 16
-48 68 -87 126 -94 32 -3 53 -13 74 -33 23 -24 37 -29 75 -29 31 0 57 7 75 20
24 17 29 18 34 5 3 -8 20 -24 38 -35 57 -34 159 -23 196 23 9 10 25 13 57 9
56 -6 89 14 53 32 -26 13 -35 50 -18 72 20 24 69 18 82 -10 12 -29 5 -56 -16
-56 -9 0 -12 7 -9 21 4 16 8 17 14 7 6 -9 9 -9 9 -1 0 19 -31 45 -47 39 -8 -3
-17 -6 -19 -6 -2 0 -4 -12 -4 -26 0 -18 6 -28 20 -31 12 -3 27 -21 35 -40 10
-24 26 -39 57 -52 54 -24 99 -17 139 19 18 18 40 28 57 28 31 -1 72 18 72 32
0 6 39 10 91 10 95 0 117 6 162 48 84 79 34 229 -83 248 -22 4 -40 12 -40 18
0 20 -24 45 -45 49 -11 1 -32 15 -46 29 -36 36 -91 46 -136 24 -31 -15 -36
-15 -56 -1 -12 8 -36 15 -53 15 -26 0 -36 7 -52 33 -22 39 -75 67 -125 67 -20
0 -40 7 -48 17 -37 44 -172 69 -238 42z m181 -34 c18 -10 40 -24 49 -32 9 -7
32 -15 51 -17 47 -5 88 -28 121 -70 22 -28 35 -36 60 -36 18 0 42 -7 55 -15
19 -14 24 -14 51 0 47 24 86 19 124 -15 19 -16 41 -30 48 -30 8 -1 23 -15 34
-32 13 -22 31 -34 54 -39 76 -16 112 -60 107 -133 -4 -54 -59 -106 -113 -107
-21 -1 -63 -2 -94 -3 -41 -1 -63 -7 -78 -20 -16 -14 -34 -19 -64 -17 -33 1
-48 -3 -62 -19 l-18 -20 -20 21 c-16 17 -29 20 -71 17 l-52 -3 10 27 c22 58
-37 106 -88 73 -21 -14 -26 -25 -26 -56 l0 -40 -29 15 c-26 14 -30 14 -41 1
-7 -8 -21 -15 -31 -15 -10 0 -30 -12 -45 -27 -18 -19 -28 -24 -31 -15 -11 28
-35 41 -77 40 -24 0 -48 2 -54 6 -14 8 -74 -18 -65 -29 5 -4 0 -5 -10 -2 -10
4 -27 2 -38 -3 -10 -6 -19 -7 -19 -2 0 11 -77 66 -94 68 -6 0 -23 2 -38 2 -15
1 -42 17 -62 36 -32 30 -36 39 -36 86 0 45 4 56 33 84 17 18 37 35 44 37 6 2
22 24 35 48 29 56 63 81 119 88 53 7 64 15 86 60 19 40 69 83 115 99 44 15
118 10 160 -11z m153 -505 c3 -5 -1 -10 -9 -10 -9 0 -16 -5 -16 -11 0 -5 5 -7
10 -4 6 3 10 1 10 -4 0 -6 -7 -11 -15 -11 -8 0 -15 8 -15 18 0 29 22 43 35 22z
m-115 -58 c0 -5 -7 -9 -15 -9 -8 0 -15 4 -15 9 0 4 7 8 15 8 8 0 15 -4 15 -8z
m-162 -24 c6 -6 12 -20 12 -32 0 -20 -1 -19 -13 4 -9 19 -21 24 -50 25 -52 2
-57 12 -5 12 24 1 49 -4 56 -9z m118 0 c4 -6 3 -8 -4 -5 -16 10 -42 -3 -43
-22 0 -10 -2 -12 -6 -3 -11 28 37 56 53 30z m91 6 c-3 -3 -12 -4 -19 -1 -8 3
-5 6 6 6 11 1 17 -2 13 -5z m218 -16 c8 -12 12 -25 8 -31 -3 -5 -11 2 -17 15
-13 25 -64 33 -101 15 -17 -9 -18 -8 -7 6 20 24 98 21 117 -5z m85 15 c-8 -3
-23 -12 -32 -21 -10 -8 -18 -11 -18 -6 0 17 23 34 45 33 14 0 16 -2 5 -6z
m-522 -39 c2 -15 1 -16 -6 -5 -6 7 -15 10 -21 7 -12 -8 -15 6 -4 18 11 11 28
1 31 -20z m371 -3 c0 -10 -2 -11 -6 -3 -2 6 -11 12 -19 12 -9 0 -13 4 -9 10 9
14 35 0 34 -19z m48 -2 c1 -14 0 -17 -3 -6 -3 9 -10 17 -15 17 -5 0 -9 -8 -10
-17 0 -11 -2 -13 -6 -5 -7 19 5 44 20 40 6 -3 13 -15 14 -29z"/>
<path d="M1245 1490 c-7 -12 2 -12 30 0 19 8 19 9 -2 9 -12 1 -25 -3 -28 -9z"/>
<path d="M1184 2021 c-17 -10 -40 -31 -52 -46 -20 -25 -22 -26 -44 -11 -32 22
-90 20 -121 -4 -18 -14 -34 -19 -51 -14 -33 8 -91 -21 -108 -54 -11 -24 -19
-27 -66 -28 -60 -2 -94 -21 -122 -67 -54 -88 19 -207 128 -207 26 0 32 -4 32
-21 0 -33 53 -79 92 -79 26 0 37 -6 49 -29 24 -42 100 -75 152 -67 47 8 107
41 107 60 0 21 -33 42 -68 44 -66 4 -119 48 -142 118 -22 66 11 148 75 185 19
12 35 26 35 33 0 25 53 87 90 106 22 11 55 20 75 20 23 0 35 5 35 14 0 7 9 25
21 40 l20 26 -53 0 c-34 0 -64 -7 -84 -19z m80 -21 c-5 -5 -27 -12 -49 -16
-47 -7 -42 3 12 21 39 14 54 12 37 -5z m-170 -72 c6 -5 1 -20 -12 -38 -12 -16
-22 -33 -22 -38 0 -6 -12 -18 -27 -28 -86 -56 -120 -174 -73 -252 11 -18 20
-39 20 -48 0 -22 -42 -35 -61 -18 -8 8 -29 14 -46 14 -32 0 -52 17 -74 65 -12
25 -22 31 -64 37 -99 14 -139 110 -76 180 25 28 34 32 83 32 50 1 57 4 79 33
29 38 58 53 104 53 19 0 37 4 40 10 17 28 96 27 129 -2z m-78 -464 l1 -59 -7
60 -7 60 -3 -55 c-1 -30 -5 -45 -7 -34 -3 17 -9 21 -26 16 -20 -5 -21 -4 -7
13 14 17 14 18 -10 5 -23 -12 -24 -12 -11 4 8 10 23 15 33 13 14 -4 18 1 18
20 0 15 5 23 13 21 7 -3 12 -26 13 -64z m79 15 c4 -5 0 -18 -8 -27 -8 -9 -17
-24 -20 -32 -4 -11 -6 -10 -6 4 -1 11 7 28 17 39 13 16 14 19 2 15 -8 -2 -20
-20 -27 -39 -11 -32 -12 -32 -12 -7 -1 40 38 74 54 47z m39 -24 c-9 -14 -19
-24 -21 -21 -7 7 16 46 28 46 5 0 2 -11 -7 -25z m26 1 c0 -3 -4 -8 -10 -11 -5
-3 -10 -1 -10 4 0 6 5 11 10 11 6 0 10 -2 10 -4z"/>
<path d="M1326 1443 c-20 -10 -44 -14 -75 -10 l-46 5 44 -39 c71 -63 143 -74
227 -35 66 31 76 46 26 39 -38 -5 -112 22 -127 47 -8 13 -14 12 -49 -7z m44
-33 l8 25 1 -27 c1 -19 -4 -28 -14 -28 -11 0 -15 10 -14 33 l2 32 5 -30 5 -30
7 25z m-40 -5 c0 -16 -6 -25 -15 -25 -9 0 -15 9 -14 23 0 21 1 21 9 2 8 -19 9
-19 9 3 1 30 11 28 11 -3z m-40 -5 c0 -5 -2 -10 -4 -10 -3 0 -8 5 -11 10 -3 6
-1 10 4 10 6 0 11 -4 11 -10z m141 -4 c5 3 9 0 9 -5 0 -6 -7 -11 -15 -11 -8 0
-15 8 -14 18 0 10 3 12 6 4 2 -6 9 -10 14 -6z"/>
<path d="M2063 1408 c7 -20 -9 -25 -16 -5 -4 7 -6 6 -6 -4 -1 -23 28 -33 36
-13 3 8 0 21 -7 27 -10 10 -12 8 -7 -5z"/>
<path d="M1670 1389 c0 -7 -8 -9 -21 -6 -16 4 -19 3 -11 -5 8 -8 18 -8 34 -1
15 6 18 12 10 17 -7 4 -12 2 -12 -5z"/>
<path d="M1733 1385 c0 -8 4 -12 9 -9 5 3 6 10 3 15 -9 13 -12 11 -12 -6z"/>
<path d="M1775 1391 c-6 -11 13 -26 22 -17 4 3 1 6 -6 6 -7 0 -9 5 -6 10 3 6
4 10 1 10 -3 0 -7 -4 -11 -9z"/>
<path d="M1195 1380 c-16 -7 -17 -9 -3 -9 9 -1 20 4 23 9 7 11 7 11 -20 0z"/>
<path d="M1990 1380 c-23 -7 -23 -8 -3 -9 12 -1 25 4 28 9 3 6 5 10 3 9 -2 -1
-14 -5 -28 -9z"/>
<path d="M800 1281 c0 -6 -16 -36 -35 -68 -43 -72 -46 -113 -9 -142 36 -28 79
-27 109 4 34 33 31 69 -10 138 -19 32 -35 62 -35 68 0 5 -4 9 -10 9 -5 0 -10
-4 -10 -9z m38 -90 c30 -53 29 -88 -3 -103 -36 -16 -75 3 -75 38 0 26 38 104
50 104 3 0 16 -17 28 -39z"/>
<path d="M1240 1281 c0 -6 -16 -36 -35 -68 -41 -69 -44 -105 -10 -138 30 -31
73 -32 109 -4 36 29 34 66 -11 149 -35 64 -53 85 -53 61z m57 -143 c5 -23 2
-34 -12 -45 -28 -19 -62 -16 -79 9 -13 19 -13 25 0 57 8 19 22 43 31 53 15 17
17 17 35 -13 10 -17 22 -45 25 -61z"/>
<path d="M1651 1222 c-47 -79 -51 -113 -16 -147 30 -31 73 -32 109 -4 38 30
34 72 -13 153 l-38 66 -42 -68z m67 -26 c27 -39 27 -93 0 -110 -26 -16 -72 4
-77 34 -3 22 36 110 49 110 3 0 15 -15 28 -34z"/>
<path d="M2095 1228 c-50 -85 -55 -119 -22 -152 57 -57 145 -15 139 66 0 9
-18 46 -40 82 l-40 66 -37 -62z m87 -79 c10 -29 9 -34 -12 -51 -26 -21 -49
-23 -75 -5 -22 17 -16 64 16 108 l21 30 19 -25 c11 -14 25 -40 31 -57z"/>
<path d="M988 1041 c-21 -38 -38 -81 -38 -95 0 -37 41 -76 80 -76 39 0 80 39
80 76 0 24 -68 164 -80 164 -3 0 -22 -31 -42 -69z m91 -113 c-5 -10 -15 -19
-22 -19 -7 -1 -22 -3 -34 -4 -49 -5 -55 55 -11 125 l21 35 28 -59 c21 -45 26
-64 18 -78z"/>
<path d="M1460 1101 c0 -6 -16 -36 -35 -68 -41 -69 -44 -105 -10 -138 30 -31
73 -32 109 -4 37 29 34 72 -11 152 -35 61 -53 81 -53 58z m38 -84 c31 -46 30
-94 -3 -109 -36 -16 -75 3 -75 37 0 24 39 105 50 105 3 0 15 -15 28 -33z"/>
<path d="M1871 1042 c-22 -38 -41 -80 -41 -94 0 -63 81 -99 133 -58 40 31 36
75 -12 156 l-39 64 -41 -68z m68 -25 c27 -45 32 -78 13 -99 -29 -34 -92 -10
-92 34 0 21 41 98 52 98 3 0 16 -15 27 -33z"/>
</g>
</svg>
